<mxfile host="app.diagrams.net" modified="2023-10-29T23:45:18.675Z" agent="Mozilla/5.0 (Windows NT 10.0; Win64; x64) AppleWebKit/537.36 (KHTML, like Gecko) Chrome/118.0.0.0 Safari/537.36" etag="629mKdkPJyoY3sfa74v1" version="22.0.8" type="github">
  <diagram name="Página-1" id="qWmJs8kZgu5k2vtlvRHO">
    <mxGraphModel dx="2074" dy="1156" grid="1" gridSize="10" guides="1" tooltips="1" connect="1" arrows="1" fold="1" page="1" pageScale="1" pageWidth="1169" pageHeight="827" math="0" shadow="0">
      <root>
        <mxCell id="0" />
        <mxCell id="1" parent="0" />
        <mxCell id="4Z5__5ZLUC38kApSKfr--33" value="&lt;br&gt;" style="rounded=0;whiteSpace=wrap;html=1;" parent="1" vertex="1">
          <mxGeometry x="10" y="20" width="1150" height="1280" as="geometry" />
        </mxCell>
        <mxCell id="4Z5__5ZLUC38kApSKfr--2" style="edgeStyle=orthogonalEdgeStyle;rounded=0;orthogonalLoop=1;jettySize=auto;html=1;exitX=1;exitY=0.5;exitDx=0;exitDy=0;endArrow=none;endFill=0;" parent="1" source="4Z5__5ZLUC38kApSKfr--6" target="4Z5__5ZLUC38kApSKfr--35" edge="1">
          <mxGeometry relative="1" as="geometry" />
        </mxCell>
        <mxCell id="4Z5__5ZLUC38kApSKfr--119" style="edgeStyle=orthogonalEdgeStyle;rounded=0;orthogonalLoop=1;jettySize=auto;html=1;exitX=0.5;exitY=0;exitDx=0;exitDy=0;entryX=0.5;entryY=1;entryDx=0;entryDy=0;endArrow=none;endFill=0;" parent="1" source="4Z5__5ZLUC38kApSKfr--6" target="4Z5__5ZLUC38kApSKfr--61" edge="1">
          <mxGeometry relative="1" as="geometry">
            <Array as="points">
              <mxPoint x="225" y="400" />
            </Array>
          </mxGeometry>
        </mxCell>
        <mxCell id="4Z5__5ZLUC38kApSKfr--211" style="edgeStyle=orthogonalEdgeStyle;rounded=0;orthogonalLoop=1;jettySize=auto;html=1;exitX=0.25;exitY=1;exitDx=0;exitDy=0;entryX=1;entryY=0.5;entryDx=0;entryDy=0;endArrow=oval;endFill=1;dashed=1;dashPattern=1 2;" parent="1" source="4Z5__5ZLUC38kApSKfr--6" target="4Z5__5ZLUC38kApSKfr--23" edge="1">
          <mxGeometry relative="1" as="geometry" />
        </mxCell>
        <mxCell id="4Z5__5ZLUC38kApSKfr--212" style="edgeStyle=orthogonalEdgeStyle;rounded=0;orthogonalLoop=1;jettySize=auto;html=1;exitX=0.5;exitY=1;exitDx=0;exitDy=0;entryX=1;entryY=0.5;entryDx=0;entryDy=0;endArrow=none;endFill=0;dashed=1;dashPattern=1 2;" parent="1" source="4Z5__5ZLUC38kApSKfr--6" target="4Z5__5ZLUC38kApSKfr--21" edge="1">
          <mxGeometry relative="1" as="geometry" />
        </mxCell>
        <mxCell id="4Z5__5ZLUC38kApSKfr--6" value="HABITACION" style="whiteSpace=wrap;html=1;align=center;fillColor=#f5f5f5;fontColor=#333333;strokeColor=#666666;" parent="1" vertex="1">
          <mxGeometry x="168.68" y="569.5" width="114.5" height="40" as="geometry" />
        </mxCell>
        <mxCell id="4Z5__5ZLUC38kApSKfr--116" style="edgeStyle=orthogonalEdgeStyle;rounded=0;orthogonalLoop=1;jettySize=auto;html=1;exitX=0.5;exitY=1;exitDx=0;exitDy=0;entryX=0.5;entryY=0;entryDx=0;entryDy=0;endArrow=none;endFill=0;" parent="1" source="4Z5__5ZLUC38kApSKfr--11" target="4Z5__5ZLUC38kApSKfr--61" edge="1">
          <mxGeometry relative="1" as="geometry" />
        </mxCell>
        <mxCell id="4Z5__5ZLUC38kApSKfr--190" style="edgeStyle=orthogonalEdgeStyle;rounded=0;orthogonalLoop=1;jettySize=auto;html=1;exitX=0.25;exitY=1;exitDx=0;exitDy=0;entryX=1;entryY=0.5;entryDx=0;entryDy=0;dashed=1;dashPattern=1 2;endArrow=none;endFill=0;" parent="1" source="4Z5__5ZLUC38kApSKfr--11" target="4Z5__5ZLUC38kApSKfr--189" edge="1">
          <mxGeometry relative="1" as="geometry" />
        </mxCell>
        <mxCell id="4Z5__5ZLUC38kApSKfr--11" value="HOTEL" style="whiteSpace=wrap;html=1;align=center;fillColor=#f5f5f5;fontColor=#333333;strokeColor=#666666;" parent="1" vertex="1">
          <mxGeometry x="167.5" y="222" width="115.68" height="40" as="geometry" />
        </mxCell>
        <mxCell id="4Z5__5ZLUC38kApSKfr--12" style="edgeStyle=orthogonalEdgeStyle;rounded=0;orthogonalLoop=1;jettySize=auto;html=1;exitX=0.5;exitY=0;exitDx=0;exitDy=0;entryX=0.5;entryY=0;entryDx=0;entryDy=0;" parent="1" edge="1">
          <mxGeometry relative="1" as="geometry">
            <mxPoint x="84.94" y="414" as="sourcePoint" />
            <mxPoint x="84.94" y="414" as="targetPoint" />
          </mxGeometry>
        </mxCell>
        <mxCell id="4Z5__5ZLUC38kApSKfr--13" value="EJER. 13 -&amp;nbsp; SUPERMERCADO MANDARÍN" style="text;html=1;align=center;verticalAlign=middle;resizable=0;points=[];autosize=1;strokeColor=#36393d;fillColor=#cce5ff;fontStyle=1;fontSize=12;" parent="1" vertex="1">
          <mxGeometry x="44.44" y="30" width="260" height="30" as="geometry" />
        </mxCell>
        <mxCell id="4Z5__5ZLUC38kApSKfr--14" style="edgeStyle=orthogonalEdgeStyle;rounded=0;orthogonalLoop=1;jettySize=auto;html=1;exitX=0;exitY=0.5;exitDx=0;exitDy=0;entryX=1;entryY=0.5;entryDx=0;entryDy=0;endArrow=none;endFill=0;startArrow=none;startFill=0;strokeColor=none;" parent="1" edge="1">
          <mxGeometry relative="1" as="geometry">
            <mxPoint x="98.13" y="259.5" as="sourcePoint" />
            <mxPoint x="148.13" y="259.5" as="targetPoint" />
          </mxGeometry>
        </mxCell>
        <mxCell id="4Z5__5ZLUC38kApSKfr--18" style="edgeStyle=orthogonalEdgeStyle;rounded=0;orthogonalLoop=1;jettySize=auto;html=1;exitDx=0;exitDy=0;entryX=0.25;entryY=0;entryDx=0;entryDy=0;dashed=1;dashPattern=1 2;endArrow=none;endFill=0;" parent="1" source="4Z5__5ZLUC38kApSKfr--55" target="4Z5__5ZLUC38kApSKfr--11" edge="1">
          <mxGeometry relative="1" as="geometry" />
        </mxCell>
        <mxCell id="4Z5__5ZLUC38kApSKfr--19" value="nombre" style="ellipse;whiteSpace=wrap;html=1;align=center;fontStyle=4" parent="1" vertex="1">
          <mxGeometry x="47.629999999999995" y="161.5" width="100" height="40" as="geometry" />
        </mxCell>
        <mxCell id="4Z5__5ZLUC38kApSKfr--20" style="edgeStyle=orthogonalEdgeStyle;rounded=0;orthogonalLoop=1;jettySize=auto;html=1;exitDx=0;exitDy=0;entryX=0.5;entryY=0;entryDx=0;entryDy=0;endArrow=none;endFill=0;dashed=1;dashPattern=1 2;" parent="1" edge="1">
          <mxGeometry relative="1" as="geometry">
            <mxPoint x="218.55" y="639.5" as="sourcePoint" />
            <mxPoint x="218.55" y="639.5" as="targetPoint" />
          </mxGeometry>
        </mxCell>
        <mxCell id="4Z5__5ZLUC38kApSKfr--21" value="tipo" style="ellipse;whiteSpace=wrap;html=1;align=center;" parent="1" vertex="1">
          <mxGeometry x="34.87" y="658" width="100" height="40" as="geometry" />
        </mxCell>
        <mxCell id="4Z5__5ZLUC38kApSKfr--23" value="numero" style="ellipse;whiteSpace=wrap;html=1;align=center;fontStyle=4" parent="1" vertex="1">
          <mxGeometry x="34.87" y="610" width="100" height="40" as="geometry" />
        </mxCell>
        <mxCell id="4Z5__5ZLUC38kApSKfr--24" value="(1, N)" style="text;strokeColor=none;fillColor=none;spacingLeft=4;spacingRight=4;overflow=hidden;rotatable=0;points=[[0,0.5],[1,0.5]];portConstraint=eastwest;fontSize=12;whiteSpace=wrap;html=1;" parent="1" vertex="1">
          <mxGeometry x="222.75" y="518" width="50" height="30" as="geometry" />
        </mxCell>
        <mxCell id="4Z5__5ZLUC38kApSKfr--124" style="edgeStyle=orthogonalEdgeStyle;rounded=0;orthogonalLoop=1;jettySize=auto;html=1;exitX=0.25;exitY=1;exitDx=0;exitDy=0;entryX=1;entryY=0.5;entryDx=0;entryDy=0;dashed=1;dashPattern=1 2;endArrow=oval;endFill=1;" parent="1" source="4Z5__5ZLUC38kApSKfr--28" target="4Z5__5ZLUC38kApSKfr--29" edge="1">
          <mxGeometry relative="1" as="geometry">
            <Array as="points">
              <mxPoint x="522" y="668" />
            </Array>
          </mxGeometry>
        </mxCell>
        <mxCell id="4Z5__5ZLUC38kApSKfr--28" value="FACTURA" style="whiteSpace=wrap;html=1;align=center;fillColor=#f5f5f5;fontColor=#333333;strokeColor=#666666;" parent="1" vertex="1">
          <mxGeometry x="497.5" y="569.5" width="98" height="40" as="geometry" />
        </mxCell>
        <mxCell id="4Z5__5ZLUC38kApSKfr--29" value="numero" style="ellipse;whiteSpace=wrap;html=1;align=center;fontStyle=4;" parent="1" vertex="1">
          <mxGeometry x="391" y="648" width="100" height="40" as="geometry" />
        </mxCell>
        <mxCell id="4Z5__5ZLUC38kApSKfr--30" value="importe_total" style="ellipse;whiteSpace=wrap;html=1;align=center;" parent="1" vertex="1">
          <mxGeometry x="390" y="706" width="100" height="40" as="geometry" />
        </mxCell>
        <mxCell id="4Z5__5ZLUC38kApSKfr--34" style="edgeStyle=orthogonalEdgeStyle;rounded=0;orthogonalLoop=1;jettySize=auto;html=1;exitX=1;exitY=0.5;exitDx=0;exitDy=0;entryX=0;entryY=0.5;entryDx=0;entryDy=0;endArrow=none;endFill=0;" parent="1" source="4Z5__5ZLUC38kApSKfr--35" target="4Z5__5ZLUC38kApSKfr--28" edge="1">
          <mxGeometry relative="1" as="geometry" />
        </mxCell>
        <mxCell id="4Z5__5ZLUC38kApSKfr--35" value="ASIGNA&lt;br&gt;N:N" style="shape=rhombus;perimeter=rhombusPerimeter;whiteSpace=wrap;html=1;align=center;fillColor=#d5e8d4;strokeColor=#82b366;" parent="1" vertex="1">
          <mxGeometry x="350" y="554.5" width="96" height="70" as="geometry" />
        </mxCell>
        <mxCell id="4Z5__5ZLUC38kApSKfr--37" style="edgeStyle=orthogonalEdgeStyle;rounded=0;orthogonalLoop=1;jettySize=auto;html=1;exitX=1;exitY=0.5;exitDx=0;exitDy=0;dashed=1;dashPattern=1 2;endArrow=none;endFill=0;" parent="1" source="4Z5__5ZLUC38kApSKfr--38" target="4Z5__5ZLUC38kApSKfr--11" edge="1">
          <mxGeometry relative="1" as="geometry">
            <Array as="points">
              <mxPoint x="207.13" y="134.5" />
            </Array>
          </mxGeometry>
        </mxCell>
        <mxCell id="4Z5__5ZLUC38kApSKfr--38" value="direccion" style="ellipse;whiteSpace=wrap;html=1;align=center;" parent="1" vertex="1">
          <mxGeometry x="90.5" y="115.5" width="100" height="38" as="geometry" />
        </mxCell>
        <mxCell id="4Z5__5ZLUC38kApSKfr--45" value="(1, 1)" style="text;strokeColor=none;fillColor=none;spacingLeft=4;spacingRight=4;overflow=hidden;rotatable=0;points=[[0,0.5],[1,0.5]];portConstraint=eastwest;fontSize=12;whiteSpace=wrap;html=1;" parent="1" vertex="1">
          <mxGeometry x="222.75" y="270" width="50" height="30" as="geometry" />
        </mxCell>
        <mxCell id="4Z5__5ZLUC38kApSKfr--54" value="" style="edgeStyle=orthogonalEdgeStyle;rounded=0;orthogonalLoop=1;jettySize=auto;html=1;exitX=1;exitY=0.5;exitDx=0;exitDy=0;entryDx=0;entryDy=0;dashed=1;dashPattern=1 2;endArrow=none;endFill=0;" parent="1" source="4Z5__5ZLUC38kApSKfr--19" target="4Z5__5ZLUC38kApSKfr--55" edge="1">
          <mxGeometry relative="1" as="geometry">
            <mxPoint x="148.13" y="181.5" as="sourcePoint" />
            <mxPoint x="194.13" y="224.5" as="targetPoint" />
          </mxGeometry>
        </mxCell>
        <mxCell id="4Z5__5ZLUC38kApSKfr--55" value="" style="shape=waypoint;sketch=0;fillStyle=solid;size=6;pointerEvents=1;points=[];fillColor=none;resizable=0;rotatable=0;perimeter=centerPerimeter;snapToPoint=1;dashed=1;dashPattern=1 2;" parent="1" vertex="1">
          <mxGeometry x="140.13" y="171.5" width="20" height="20" as="geometry" />
        </mxCell>
        <mxCell id="4Z5__5ZLUC38kApSKfr--61" value="TIENE&lt;br&gt;1:N" style="shape=rhombus;perimeter=rhombusPerimeter;whiteSpace=wrap;html=1;align=center;fillColor=#d5e8d4;strokeColor=#82b366;" parent="1" vertex="1">
          <mxGeometry x="177.34" y="375" width="96" height="70" as="geometry" />
        </mxCell>
        <mxCell id="4Z5__5ZLUC38kApSKfr--107" style="edgeStyle=orthogonalEdgeStyle;rounded=0;orthogonalLoop=1;jettySize=auto;html=1;exitX=1;exitY=0.5;exitDx=0;exitDy=0;entryX=0;entryY=0.5;entryDx=0;entryDy=0;dashed=1;dashPattern=1 2;endArrow=none;endFill=0;" parent="1" source="4Z5__5ZLUC38kApSKfr--106" target="4Z5__5ZLUC38kApSKfr--11" edge="1">
          <mxGeometry relative="1" as="geometry" />
        </mxCell>
        <mxCell id="4Z5__5ZLUC38kApSKfr--106" value="telefono" style="ellipse;whiteSpace=wrap;html=1;align=center;" parent="1" vertex="1">
          <mxGeometry x="40.13" y="224" width="100" height="38" as="geometry" />
        </mxCell>
        <mxCell id="4Z5__5ZLUC38kApSKfr--120" value="(1, N)" style="text;strokeColor=none;fillColor=none;spacingLeft=4;spacingRight=4;overflow=hidden;rotatable=0;points=[[0,0.5],[1,0.5]];portConstraint=eastwest;fontSize=12;whiteSpace=wrap;html=1;" parent="1" vertex="1">
          <mxGeometry x="283.18" y="567" width="50" height="30" as="geometry" />
        </mxCell>
        <mxCell id="4Z5__5ZLUC38kApSKfr--121" value="(1, N)" style="text;strokeColor=none;fillColor=none;spacingLeft=4;spacingRight=4;overflow=hidden;rotatable=0;points=[[0,0.5],[1,0.5]];portConstraint=eastwest;fontSize=12;whiteSpace=wrap;html=1;" parent="1" vertex="1">
          <mxGeometry x="457" y="567" width="50" height="30" as="geometry" />
        </mxCell>
        <mxCell id="4Z5__5ZLUC38kApSKfr--155" style="edgeStyle=orthogonalEdgeStyle;rounded=0;orthogonalLoop=1;jettySize=auto;html=1;exitX=0.75;exitY=0;exitDx=0;exitDy=0;entryX=0;entryY=0.5;entryDx=0;entryDy=0;dashed=1;dashPattern=1 2;endArrow=none;endFill=0;" parent="1" source="4Z5__5ZLUC38kApSKfr--122" target="4Z5__5ZLUC38kApSKfr--152" edge="1">
          <mxGeometry relative="1" as="geometry" />
        </mxCell>
        <mxCell id="4Z5__5ZLUC38kApSKfr--156" style="edgeStyle=orthogonalEdgeStyle;rounded=0;orthogonalLoop=1;jettySize=auto;html=1;exitX=0.5;exitY=0;exitDx=0;exitDy=0;entryX=0;entryY=0.5;entryDx=0;entryDy=0;dashed=1;dashPattern=1 2;endArrow=none;endFill=0;" parent="1" source="4Z5__5ZLUC38kApSKfr--122" target="4Z5__5ZLUC38kApSKfr--151" edge="1">
          <mxGeometry relative="1" as="geometry" />
        </mxCell>
        <mxCell id="4Z5__5ZLUC38kApSKfr--157" style="edgeStyle=orthogonalEdgeStyle;rounded=0;orthogonalLoop=1;jettySize=auto;html=1;exitX=0.25;exitY=0;exitDx=0;exitDy=0;entryX=0;entryY=0.5;entryDx=0;entryDy=0;dashed=1;dashPattern=1 2;endArrow=none;endFill=0;" parent="1" source="4Z5__5ZLUC38kApSKfr--122" target="4Z5__5ZLUC38kApSKfr--150" edge="1">
          <mxGeometry relative="1" as="geometry" />
        </mxCell>
        <mxCell id="4Z5__5ZLUC38kApSKfr--122" value="AGENCIA_VIAJES" style="whiteSpace=wrap;html=1;align=center;fillColor=#f5f5f5;fontColor=#333333;strokeColor=#666666;" parent="1" vertex="1">
          <mxGeometry x="908" y="462.5" width="110" height="40" as="geometry" />
        </mxCell>
        <mxCell id="4Z5__5ZLUC38kApSKfr--126" style="edgeStyle=orthogonalEdgeStyle;rounded=0;orthogonalLoop=1;jettySize=auto;html=1;exitX=0;exitY=0.5;exitDx=0;exitDy=0;entryX=0.75;entryY=1;entryDx=0;entryDy=0;endArrow=none;endFill=0;dashed=1;dashPattern=1 2;" parent="1" source="4Z5__5ZLUC38kApSKfr--123" target="4Z5__5ZLUC38kApSKfr--28" edge="1">
          <mxGeometry relative="1" as="geometry" />
        </mxCell>
        <mxCell id="4Z5__5ZLUC38kApSKfr--123" value="tarifa" style="ellipse;whiteSpace=wrap;html=1;align=center;" parent="1" vertex="1">
          <mxGeometry x="622" y="650" width="100" height="40" as="geometry" />
        </mxCell>
        <mxCell id="4Z5__5ZLUC38kApSKfr--128" style="edgeStyle=orthogonalEdgeStyle;rounded=0;orthogonalLoop=1;jettySize=auto;html=1;exitX=0;exitY=0.5;exitDx=0;exitDy=0;entryX=0.5;entryY=1;entryDx=0;entryDy=0;endArrow=none;endFill=0;dashed=1;dashPattern=1 2;" parent="1" source="4Z5__5ZLUC38kApSKfr--125" target="4Z5__5ZLUC38kApSKfr--28" edge="1">
          <mxGeometry relative="1" as="geometry" />
        </mxCell>
        <mxCell id="4Z5__5ZLUC38kApSKfr--125" value="estancia" style="ellipse;whiteSpace=wrap;html=1;align=center;" parent="1" vertex="1">
          <mxGeometry x="576.84" y="734" width="100" height="40" as="geometry" />
        </mxCell>
        <mxCell id="4Z5__5ZLUC38kApSKfr--146" style="edgeStyle=orthogonalEdgeStyle;rounded=0;orthogonalLoop=1;jettySize=auto;html=1;exitX=1;exitY=0.5;exitDx=0;exitDy=0;entryX=0;entryY=0.5;entryDx=0;entryDy=0;dashed=1;dashPattern=1 2;endArrow=oval;endFill=1;" parent="1" source="4Z5__5ZLUC38kApSKfr--129" target="4Z5__5ZLUC38kApSKfr--141" edge="1">
          <mxGeometry relative="1" as="geometry" />
        </mxCell>
        <mxCell id="4Z5__5ZLUC38kApSKfr--147" style="edgeStyle=orthogonalEdgeStyle;rounded=0;orthogonalLoop=1;jettySize=auto;html=1;exitX=0.75;exitY=1;exitDx=0;exitDy=0;entryX=0;entryY=0.5;entryDx=0;entryDy=0;endArrow=none;endFill=0;dashed=1;dashPattern=1 2;" parent="1" source="4Z5__5ZLUC38kApSKfr--129" target="4Z5__5ZLUC38kApSKfr--143" edge="1">
          <mxGeometry relative="1" as="geometry" />
        </mxCell>
        <mxCell id="4Z5__5ZLUC38kApSKfr--148" style="edgeStyle=orthogonalEdgeStyle;rounded=0;orthogonalLoop=1;jettySize=auto;html=1;exitX=0.5;exitY=1;exitDx=0;exitDy=0;entryX=0;entryY=0.5;entryDx=0;entryDy=0;endArrow=none;endFill=0;dashed=1;dashPattern=1 2;" parent="1" source="4Z5__5ZLUC38kApSKfr--129" target="4Z5__5ZLUC38kApSKfr--144" edge="1">
          <mxGeometry relative="1" as="geometry" />
        </mxCell>
        <mxCell id="4Z5__5ZLUC38kApSKfr--149" style="edgeStyle=orthogonalEdgeStyle;rounded=0;orthogonalLoop=1;jettySize=auto;html=1;exitX=0.25;exitY=1;exitDx=0;exitDy=0;entryX=0;entryY=0.5;entryDx=0;entryDy=0;endArrow=none;endFill=0;dashed=1;dashPattern=1 2;" parent="1" source="4Z5__5ZLUC38kApSKfr--129" target="4Z5__5ZLUC38kApSKfr--145" edge="1">
          <mxGeometry relative="1" as="geometry" />
        </mxCell>
        <mxCell id="4Z5__5ZLUC38kApSKfr--129" value="PARTICULAR" style="whiteSpace=wrap;html=1;align=center;fillColor=#f5f5f5;fontColor=#333333;strokeColor=#666666;" parent="1" vertex="1">
          <mxGeometry x="920" y="569.5" width="98" height="40" as="geometry" />
        </mxCell>
        <mxCell id="4Z5__5ZLUC38kApSKfr--133" style="edgeStyle=orthogonalEdgeStyle;rounded=0;orthogonalLoop=1;jettySize=auto;html=1;exitX=0;exitY=0.5;exitDx=0;exitDy=0;entryX=0.5;entryY=0;entryDx=0;entryDy=0;endArrow=none;endFill=0;" parent="1" source="4Z5__5ZLUC38kApSKfr--130" target="4Z5__5ZLUC38kApSKfr--28" edge="1">
          <mxGeometry relative="1" as="geometry" />
        </mxCell>
        <mxCell id="4Z5__5ZLUC38kApSKfr--136" style="edgeStyle=orthogonalEdgeStyle;rounded=0;orthogonalLoop=1;jettySize=auto;html=1;exitX=1;exitY=0.5;exitDx=0;exitDy=0;entryX=0;entryY=0.5;entryDx=0;entryDy=0;endArrow=none;endFill=0;" parent="1" source="4Z5__5ZLUC38kApSKfr--130" target="4Z5__5ZLUC38kApSKfr--122" edge="1">
          <mxGeometry relative="1" as="geometry" />
        </mxCell>
        <mxCell id="4Z5__5ZLUC38kApSKfr--130" value="CONTRATA&lt;br&gt;N:N" style="shape=rhombus;perimeter=rhombusPerimeter;whiteSpace=wrap;html=1;align=center;fillColor=#d5e8d4;strokeColor=#82b366;" parent="1" vertex="1">
          <mxGeometry x="740" y="447.5" width="96" height="70" as="geometry" />
        </mxCell>
        <mxCell id="4Z5__5ZLUC38kApSKfr--134" style="edgeStyle=orthogonalEdgeStyle;rounded=0;orthogonalLoop=1;jettySize=auto;html=1;exitX=0;exitY=0.5;exitDx=0;exitDy=0;entryX=1;entryY=0.5;entryDx=0;entryDy=0;endArrow=none;endFill=0;" parent="1" source="4Z5__5ZLUC38kApSKfr--131" target="4Z5__5ZLUC38kApSKfr--28" edge="1">
          <mxGeometry relative="1" as="geometry" />
        </mxCell>
        <mxCell id="4Z5__5ZLUC38kApSKfr--135" style="edgeStyle=orthogonalEdgeStyle;rounded=0;orthogonalLoop=1;jettySize=auto;html=1;exitX=1;exitY=0.5;exitDx=0;exitDy=0;endArrow=none;endFill=0;" parent="1" source="4Z5__5ZLUC38kApSKfr--131" target="4Z5__5ZLUC38kApSKfr--129" edge="1">
          <mxGeometry relative="1" as="geometry" />
        </mxCell>
        <mxCell id="4Z5__5ZLUC38kApSKfr--131" value="RESERVA&lt;br&gt;N:N" style="shape=rhombus;perimeter=rhombusPerimeter;whiteSpace=wrap;html=1;align=center;fillColor=#d5e8d4;strokeColor=#82b366;" parent="1" vertex="1">
          <mxGeometry x="734" y="554.5" width="96" height="70" as="geometry" />
        </mxCell>
        <mxCell id="4Z5__5ZLUC38kApSKfr--132" style="edgeStyle=orthogonalEdgeStyle;rounded=0;orthogonalLoop=1;jettySize=auto;html=1;exitX=1;exitY=0.5;exitDx=0;exitDy=0;entryX=0.321;entryY=1.025;entryDx=0;entryDy=0;entryPerimeter=0;dashed=1;dashPattern=1 2;endArrow=none;endFill=0;" parent="1" source="4Z5__5ZLUC38kApSKfr--30" target="4Z5__5ZLUC38kApSKfr--28" edge="1">
          <mxGeometry relative="1" as="geometry" />
        </mxCell>
        <mxCell id="4Z5__5ZLUC38kApSKfr--137" value="(0, N)" style="text;strokeColor=none;fillColor=none;spacingLeft=4;spacingRight=4;overflow=hidden;rotatable=0;points=[[0,0.5],[1,0.5]];portConstraint=eastwest;fontSize=12;whiteSpace=wrap;html=1;" parent="1" vertex="1">
          <mxGeometry x="870" y="457.5" width="50" height="30" as="geometry" />
        </mxCell>
        <mxCell id="4Z5__5ZLUC38kApSKfr--138" value="(1, N)" style="text;strokeColor=none;fillColor=none;spacingLeft=4;spacingRight=4;overflow=hidden;rotatable=0;points=[[0,0.5],[1,0.5]];portConstraint=eastwest;fontSize=12;whiteSpace=wrap;html=1;" parent="1" vertex="1">
          <mxGeometry x="880" y="563.5" width="50" height="30" as="geometry" />
        </mxCell>
        <mxCell id="4Z5__5ZLUC38kApSKfr--139" value="(0, N)" style="text;strokeColor=none;fillColor=none;spacingLeft=4;spacingRight=4;overflow=hidden;rotatable=0;points=[[0,0.5],[1,0.5]];portConstraint=eastwest;fontSize=12;whiteSpace=wrap;html=1;" parent="1" vertex="1">
          <mxGeometry x="501.84" y="539.5" width="50" height="30" as="geometry" />
        </mxCell>
        <mxCell id="4Z5__5ZLUC38kApSKfr--140" value="(0, N)" style="text;strokeColor=none;fillColor=none;spacingLeft=4;spacingRight=4;overflow=hidden;rotatable=0;points=[[0,0.5],[1,0.5]];portConstraint=eastwest;fontSize=12;whiteSpace=wrap;html=1;" parent="1" vertex="1">
          <mxGeometry x="601.84" y="563.5" width="50" height="30" as="geometry" />
        </mxCell>
        <mxCell id="4Z5__5ZLUC38kApSKfr--141" value="dni" style="ellipse;whiteSpace=wrap;html=1;align=center;fontStyle=4;" parent="1" vertex="1">
          <mxGeometry x="1040" y="569.5" width="100" height="40" as="geometry" />
        </mxCell>
        <mxCell id="4Z5__5ZLUC38kApSKfr--143" value="nombre" style="ellipse;whiteSpace=wrap;html=1;align=center;" parent="1" vertex="1">
          <mxGeometry x="1040" y="624.5" width="100" height="40" as="geometry" />
        </mxCell>
        <mxCell id="4Z5__5ZLUC38kApSKfr--144" value="direccion" style="ellipse;whiteSpace=wrap;html=1;align=center;" parent="1" vertex="1">
          <mxGeometry x="1040" y="674.5" width="100" height="40" as="geometry" />
        </mxCell>
        <mxCell id="4Z5__5ZLUC38kApSKfr--145" value="telefono" style="ellipse;whiteSpace=wrap;html=1;align=center;" parent="1" vertex="1">
          <mxGeometry x="1040" y="724.5" width="100" height="40" as="geometry" />
        </mxCell>
        <mxCell id="4Z5__5ZLUC38kApSKfr--150" value="nombre_cliente" style="ellipse;whiteSpace=wrap;html=1;align=center;fontStyle=0;" parent="1" vertex="1">
          <mxGeometry x="1040" y="301.5" width="100" height="40" as="geometry" />
        </mxCell>
        <mxCell id="4Z5__5ZLUC38kApSKfr--151" value="direccion" style="ellipse;whiteSpace=wrap;html=1;align=center;" parent="1" vertex="1">
          <mxGeometry x="1040" y="356.5" width="100" height="40" as="geometry" />
        </mxCell>
        <mxCell id="4Z5__5ZLUC38kApSKfr--152" value="telefono" style="ellipse;whiteSpace=wrap;html=1;align=center;" parent="1" vertex="1">
          <mxGeometry x="1040" y="406.5" width="100" height="40" as="geometry" />
        </mxCell>
        <mxCell id="4Z5__5ZLUC38kApSKfr--153" value="nombre" style="ellipse;whiteSpace=wrap;html=1;align=center;fontStyle=4" parent="1" vertex="1">
          <mxGeometry x="1040" y="462.5" width="100" height="40" as="geometry" />
        </mxCell>
        <mxCell id="4Z5__5ZLUC38kApSKfr--154" style="edgeStyle=orthogonalEdgeStyle;rounded=0;orthogonalLoop=1;jettySize=auto;html=1;exitX=1;exitY=0.5;exitDx=0;exitDy=0;entryX=0;entryY=0.5;entryDx=0;entryDy=0;endArrow=oval;endFill=1;dashed=1;dashPattern=1 2;" parent="1" source="4Z5__5ZLUC38kApSKfr--122" target="4Z5__5ZLUC38kApSKfr--153" edge="1">
          <mxGeometry relative="1" as="geometry" />
        </mxCell>
        <mxCell id="4Z5__5ZLUC38kApSKfr--189" value="año_construccion" style="ellipse;whiteSpace=wrap;html=1;align=center;" parent="1" vertex="1">
          <mxGeometry x="20.000000000000007" y="292" width="100" height="38" as="geometry" />
        </mxCell>
        <mxCell id="4Z5__5ZLUC38kApSKfr--198" style="edgeStyle=orthogonalEdgeStyle;rounded=0;orthogonalLoop=1;jettySize=auto;html=1;exitX=1;exitY=0.5;exitDx=0;exitDy=0;endArrow=none;endFill=0;" parent="1" source="4Z5__5ZLUC38kApSKfr--195" target="4Z5__5ZLUC38kApSKfr--191" edge="1">
          <mxGeometry relative="1" as="geometry" />
        </mxCell>
        <mxCell id="4Z5__5ZLUC38kApSKfr--199" style="edgeStyle=orthogonalEdgeStyle;rounded=0;orthogonalLoop=1;jettySize=auto;html=1;exitX=0;exitY=0.5;exitDx=0;exitDy=0;entryX=1;entryY=0.5;entryDx=0;entryDy=0;endArrow=none;endFill=0;" parent="1" source="4Z5__5ZLUC38kApSKfr--195" target="4Z5__5ZLUC38kApSKfr--11" edge="1">
          <mxGeometry relative="1" as="geometry" />
        </mxCell>
        <mxCell id="4Z5__5ZLUC38kApSKfr--195" value="PERTENECE&lt;br&gt;1:N" style="shape=rhombus;perimeter=rhombusPerimeter;whiteSpace=wrap;html=1;align=center;fillColor=#d5e8d4;strokeColor=#82b366;" parent="1" vertex="1">
          <mxGeometry x="330" y="207" width="96" height="70" as="geometry" />
        </mxCell>
        <mxCell id="4Z5__5ZLUC38kApSKfr--104" value="tipo_IVA" style="ellipse;whiteSpace=wrap;html=1;align=center;" parent="1" vertex="1">
          <mxGeometry x="476.84000000000003" y="150" width="100" height="40" as="geometry" />
        </mxCell>
        <mxCell id="4Z5__5ZLUC38kApSKfr--191" value="CATEGORIA" style="whiteSpace=wrap;html=1;align=center;fillColor=#f5f5f5;fontColor=#333333;strokeColor=#666666;" parent="1" vertex="1">
          <mxGeometry x="469" y="222" width="115.68" height="40" as="geometry" />
        </mxCell>
        <mxCell id="4Z5__5ZLUC38kApSKfr--192" value="codigo_categoria" style="ellipse;whiteSpace=wrap;html=1;align=center;fontStyle=4" parent="1" vertex="1">
          <mxGeometry x="475.34" y="295" width="103" height="40" as="geometry" />
        </mxCell>
        <mxCell id="4Z5__5ZLUC38kApSKfr--193" style="edgeStyle=orthogonalEdgeStyle;rounded=0;orthogonalLoop=1;jettySize=auto;html=1;exitX=0.5;exitY=1;exitDx=0;exitDy=0;dashed=1;dashPattern=1 2;endArrow=oval;endFill=1;" parent="1" source="4Z5__5ZLUC38kApSKfr--191" target="4Z5__5ZLUC38kApSKfr--192" edge="1">
          <mxGeometry relative="1" as="geometry" />
        </mxCell>
        <mxCell id="4Z5__5ZLUC38kApSKfr--31" style="edgeStyle=orthogonalEdgeStyle;rounded=0;orthogonalLoop=1;jettySize=auto;html=1;exitX=0.5;exitY=1;exitDx=0;exitDy=0;dashed=1;dashPattern=1 2;endArrow=none;endFill=0;" parent="1" edge="1">
          <mxGeometry relative="1" as="geometry">
            <mxPoint x="531.4999999999999" y="161.5" as="sourcePoint" />
            <mxPoint x="531.4999999999999" y="163.5" as="targetPoint" />
          </mxGeometry>
        </mxCell>
        <mxCell id="4Z5__5ZLUC38kApSKfr--194" style="edgeStyle=orthogonalEdgeStyle;rounded=0;orthogonalLoop=1;jettySize=auto;html=1;exitX=0.5;exitY=0;exitDx=0;exitDy=0;entryX=0.5;entryY=1;entryDx=0;entryDy=0;dashed=1;dashPattern=1 2;endArrow=none;endFill=0;" parent="1" source="4Z5__5ZLUC38kApSKfr--191" target="4Z5__5ZLUC38kApSKfr--104" edge="1">
          <mxGeometry relative="1" as="geometry" />
        </mxCell>
        <mxCell id="4Z5__5ZLUC38kApSKfr--200" value="(1, 1)" style="text;strokeColor=none;fillColor=none;spacingLeft=4;spacingRight=4;overflow=hidden;rotatable=0;points=[[0,0.5],[1,0.5]];portConstraint=eastwest;fontSize=12;whiteSpace=wrap;html=1;" parent="1" vertex="1">
          <mxGeometry x="426.84000000000003" y="210" width="50" height="30" as="geometry" />
        </mxCell>
        <mxCell id="4Z5__5ZLUC38kApSKfr--201" value="(1, N)" style="text;strokeColor=none;fillColor=none;spacingLeft=4;spacingRight=4;overflow=hidden;rotatable=0;points=[[0,0.5],[1,0.5]];portConstraint=eastwest;fontSize=12;whiteSpace=wrap;html=1;" parent="1" vertex="1">
          <mxGeometry x="283.18" y="210" width="50" height="30" as="geometry" />
        </mxCell>
        <mxCell id="4Z5__5ZLUC38kApSKfr--209" style="edgeStyle=orthogonalEdgeStyle;rounded=0;orthogonalLoop=1;jettySize=auto;html=1;exitX=0;exitY=0.5;exitDx=0;exitDy=0;entryX=1;entryY=0;entryDx=0;entryDy=0;endArrow=none;endFill=0;dashed=1;dashPattern=1 2;" parent="1" source="4Z5__5ZLUC38kApSKfr--202" target="4Z5__5ZLUC38kApSKfr--125" edge="1">
          <mxGeometry relative="1" as="geometry" />
        </mxCell>
        <mxCell id="4Z5__5ZLUC38kApSKfr--202" value="fecha_inicio" style="ellipse;whiteSpace=wrap;html=1;align=center;" parent="1" vertex="1">
          <mxGeometry x="710.5" y="706" width="100" height="40" as="geometry" />
        </mxCell>
        <mxCell id="4Z5__5ZLUC38kApSKfr--208" style="edgeStyle=orthogonalEdgeStyle;rounded=0;orthogonalLoop=1;jettySize=auto;html=1;exitX=0;exitY=0.5;exitDx=0;exitDy=0;entryX=1;entryY=1;entryDx=0;entryDy=0;endArrow=none;endFill=0;dashed=1;dashPattern=1 2;" parent="1" source="4Z5__5ZLUC38kApSKfr--206" target="4Z5__5ZLUC38kApSKfr--125" edge="1">
          <mxGeometry relative="1" as="geometry" />
        </mxCell>
        <mxCell id="4Z5__5ZLUC38kApSKfr--206" value="fecha_fin" style="ellipse;whiteSpace=wrap;html=1;align=center;" parent="1" vertex="1">
          <mxGeometry x="708.5" y="764" width="100" height="40" as="geometry" />
        </mxCell>
        <mxCell id="4Z5__5ZLUC38kApSKfr--251" value="" style="group;movable=1;resizable=1;rotatable=1;deletable=1;editable=1;locked=0;connectable=1;" parent="1" vertex="1" connectable="0">
          <mxGeometry x="56.680000000000064" y="860" width="503" height="453.5" as="geometry" />
        </mxCell>
        <mxCell id="4Z5__5ZLUC38kApSKfr--252" value="&lt;p style=&quot;&quot;&gt;&lt;span style=&quot;font-size: 12px; font-weight: normal;&quot;&gt;HOTEL (#nombre, telefono, direccion, año_construccion, cod_categoria)&lt;/span&gt;&lt;/p&gt;&lt;p style=&quot;&quot;&gt;&lt;span style=&quot;font-size: 12px; font-weight: normal;&quot;&gt;&lt;br&gt;&lt;/span&gt;&lt;/p&gt;&lt;p style=&quot;&quot;&gt;HABITACION (#numero, tipo_hab, nombre_hotel)&lt;/p&gt;&lt;p style=&quot;&quot;&gt;&lt;br&gt;&lt;/p&gt;&lt;p style=&quot;&quot;&gt;FACTURA (#num_fac, tarifa, estancia_fecha, importe_total, dni_particular, nombre_agencia)&lt;/p&gt;&lt;p style=&quot;&quot;&gt;&lt;br&gt;&lt;/p&gt;&lt;p style=&quot;&quot;&gt;PARTICULAR (#dni, nombre, direccion, telefono)&lt;/p&gt;&lt;p style=&quot;&quot;&gt;AGENCIA_VIAJES (#nombre, tlf, direccion, nombre_cliente)&lt;/p&gt;&lt;p style=&quot;&quot;&gt;&lt;span style=&quot;background-color: initial;&quot;&gt;ASIGNA (#num_factura, #num_hab)&amp;nbsp;&lt;/span&gt;&lt;br&gt;&lt;/p&gt;&lt;p style=&quot;&quot;&gt;&lt;span style=&quot;background-color: initial;&quot;&gt;&lt;br&gt;&lt;/span&gt;&lt;/p&gt;&lt;p style=&quot;&quot;&gt;&lt;span style=&quot;background-color: initial;&quot;&gt;CONTRATA (#nombre_agencia, #num_fac)&lt;/span&gt;&lt;/p&gt;&lt;p style=&quot;&quot;&gt;&lt;span style=&quot;background-color: initial;&quot;&gt;&lt;br&gt;&lt;/span&gt;&lt;/p&gt;&lt;p style=&quot;&quot;&gt;RESERVA (#dni_particular, #num_fact)&lt;/p&gt;&lt;p style=&quot;&quot;&gt;&lt;br&gt;&lt;/p&gt;&lt;div&gt;&lt;span style=&quot;font-size: 12px; font-weight: normal;&quot;&gt;CATEGORIA (#codigo_categoria, tipo_IVA)&lt;/span&gt;&lt;/div&gt;" style="text;html=1;strokeColor=none;fillColor=none;spacing=0;spacingTop=0;whiteSpace=wrap;overflow=hidden;rounded=0;align=left;verticalAlign=middle;" parent="4Z5__5ZLUC38kApSKfr--251" vertex="1">
          <mxGeometry width="503" height="453.5" as="geometry" />
        </mxCell>
        <mxCell id="4Z5__5ZLUC38kApSKfr--253" value="FACTURA" style="text;html=1;strokeColor=none;fillColor=none;align=center;verticalAlign=middle;whiteSpace=wrap;rounded=0;fontSize=9;container=0;" parent="1" vertex="1">
          <mxGeometry x="215.04999999999995" y="1232.5" width="60" height="20" as="geometry" />
        </mxCell>
        <mxCell id="4Z5__5ZLUC38kApSKfr--254" value="" style="endArrow=none;dashed=1;html=1;rounded=0;exitX=0;exitY=0;exitDx=0;exitDy=0;entryX=1;entryY=0;entryDx=0;entryDy=0;" parent="1" source="4Z5__5ZLUC38kApSKfr--253" target="4Z5__5ZLUC38kApSKfr--253" edge="1">
          <mxGeometry width="50" height="50" relative="1" as="geometry">
            <mxPoint x="-670.02" y="1047.5" as="sourcePoint" />
            <mxPoint x="-592.12" y="1046.5" as="targetPoint" />
          </mxGeometry>
        </mxCell>
        <mxCell id="4Z5__5ZLUC38kApSKfr--255" value="FACTURA" style="text;html=1;strokeColor=none;fillColor=none;align=center;verticalAlign=middle;whiteSpace=wrap;rounded=0;fontSize=9;container=0;" parent="1" vertex="1">
          <mxGeometry x="116.68000000000006" y="1126" width="56" height="20" as="geometry" />
        </mxCell>
        <mxCell id="4Z5__5ZLUC38kApSKfr--256" value="" style="endArrow=none;dashed=1;html=1;rounded=0;exitX=0;exitY=0;exitDx=0;exitDy=0;entryX=1;entryY=0;entryDx=0;entryDy=0;" parent="1" source="4Z5__5ZLUC38kApSKfr--255" target="4Z5__5ZLUC38kApSKfr--255" edge="1">
          <mxGeometry width="50" height="50" relative="1" as="geometry">
            <mxPoint x="-343.52" y="1067.5" as="sourcePoint" />
            <mxPoint x="-265.6200000000001" y="1066.5" as="targetPoint" />
          </mxGeometry>
        </mxCell>
        <mxCell id="4Z5__5ZLUC38kApSKfr--257" value="HOTEL" style="text;html=1;strokeColor=none;fillColor=none;align=center;verticalAlign=middle;whiteSpace=wrap;rounded=0;fontSize=9;container=0;" parent="1" vertex="1">
          <mxGeometry x="246.68000000000006" y="971.5" width="70" height="20" as="geometry" />
        </mxCell>
        <mxCell id="4Z5__5ZLUC38kApSKfr--258" value="" style="endArrow=none;dashed=1;html=1;rounded=0;exitX=0;exitY=0;exitDx=0;exitDy=0;entryX=1;entryY=0;entryDx=0;entryDy=0;" parent="1" source="4Z5__5ZLUC38kApSKfr--257" target="4Z5__5ZLUC38kApSKfr--257" edge="1">
          <mxGeometry width="50" height="50" relative="1" as="geometry">
            <mxPoint x="-193.51999999999998" y="1047.5" as="sourcePoint" />
            <mxPoint x="-115.62000000000012" y="1046.5" as="targetPoint" />
          </mxGeometry>
        </mxCell>
        <mxCell id="4Z5__5ZLUC38kApSKfr--259" value="AGENCIA_VIAJES" style="text;html=1;strokeColor=none;fillColor=none;align=center;verticalAlign=middle;whiteSpace=wrap;rounded=0;fontSize=9;container=0;" parent="1" vertex="1">
          <mxGeometry x="466.68000000000006" y="1027.5" width="78.37" height="20" as="geometry" />
        </mxCell>
        <mxCell id="4Z5__5ZLUC38kApSKfr--260" value="" style="endArrow=none;dashed=1;html=1;rounded=0;exitX=0;exitY=0;exitDx=0;exitDy=0;entryX=1;entryY=0;entryDx=0;entryDy=0;" parent="1" source="4Z5__5ZLUC38kApSKfr--259" target="4Z5__5ZLUC38kApSKfr--259" edge="1">
          <mxGeometry width="50" height="50" relative="1" as="geometry">
            <mxPoint x="-799.2" y="1001.5" as="sourcePoint" />
            <mxPoint x="-721.3" y="1000.5" as="targetPoint" />
          </mxGeometry>
        </mxCell>
        <mxCell id="4Z5__5ZLUC38kApSKfr--261" value="PARTICULAR" style="text;html=1;strokeColor=none;fillColor=none;align=center;verticalAlign=middle;whiteSpace=wrap;rounded=0;fontSize=9;container=0;" parent="1" vertex="1">
          <mxGeometry x="376.68000000000006" y="1026" width="66.06" height="20" as="geometry" />
        </mxCell>
        <mxCell id="4Z5__5ZLUC38kApSKfr--262" value="" style="endArrow=none;dashed=1;html=1;rounded=0;exitX=0;exitY=0;exitDx=0;exitDy=0;entryX=1;entryY=0;entryDx=0;entryDy=0;" parent="1" source="4Z5__5ZLUC38kApSKfr--261" target="4Z5__5ZLUC38kApSKfr--261" edge="1">
          <mxGeometry width="50" height="50" relative="1" as="geometry">
            <mxPoint x="-972.3299999999999" y="1076" as="sourcePoint" />
            <mxPoint x="-894.4300000000001" y="1075" as="targetPoint" />
          </mxGeometry>
        </mxCell>
        <mxCell id="4Z5__5ZLUC38kApSKfr--263" value="PARTICULAR" style="text;html=1;strokeColor=none;fillColor=none;align=center;verticalAlign=middle;whiteSpace=wrap;rounded=0;fontSize=9;container=0;" parent="1" vertex="1">
          <mxGeometry x="126.68000000000006" y="1231" width="78.37" height="20" as="geometry" />
        </mxCell>
        <mxCell id="4Z5__5ZLUC38kApSKfr--264" value="" style="endArrow=none;dashed=1;html=1;rounded=0;exitX=0;exitY=0;exitDx=0;exitDy=0;entryX=1;entryY=0;entryDx=0;entryDy=0;" parent="1" source="4Z5__5ZLUC38kApSKfr--263" target="4Z5__5ZLUC38kApSKfr--263" edge="1">
          <mxGeometry width="50" height="50" relative="1" as="geometry">
            <mxPoint x="-949.2" y="1013" as="sourcePoint" />
            <mxPoint x="-871.3" y="1012" as="targetPoint" />
          </mxGeometry>
        </mxCell>
        <mxCell id="4Z5__5ZLUC38kApSKfr--265" value="AGENCIA_VIAJES" style="text;html=1;strokeColor=none;fillColor=none;align=center;verticalAlign=middle;whiteSpace=wrap;rounded=0;fontSize=9;container=0;" parent="1" vertex="1">
          <mxGeometry x="136.68000000000006" y="1186" width="78.37" height="20" as="geometry" />
        </mxCell>
        <mxCell id="4Z5__5ZLUC38kApSKfr--266" value="" style="endArrow=none;dashed=1;html=1;rounded=0;exitX=0;exitY=0;exitDx=0;exitDy=0;entryX=1;entryY=0;entryDx=0;entryDy=0;" parent="1" source="4Z5__5ZLUC38kApSKfr--265" target="4Z5__5ZLUC38kApSKfr--265" edge="1">
          <mxGeometry width="50" height="50" relative="1" as="geometry">
            <mxPoint x="-400.8299999999999" y="1133" as="sourcePoint" />
            <mxPoint x="-322.92999999999995" y="1132" as="targetPoint" />
          </mxGeometry>
        </mxCell>
        <mxCell id="4Z5__5ZLUC38kApSKfr--267" value="HABITACION" style="text;html=1;strokeColor=none;fillColor=none;align=center;verticalAlign=middle;whiteSpace=wrap;rounded=0;fontSize=9;container=0;" parent="1" vertex="1">
          <mxGeometry x="186.68000000000006" y="1126" width="60" height="20" as="geometry" />
        </mxCell>
        <mxCell id="4Z5__5ZLUC38kApSKfr--268" value="" style="endArrow=none;dashed=1;html=1;rounded=0;exitX=0;exitY=0;exitDx=0;exitDy=0;entryX=1;entryY=0;entryDx=0;entryDy=0;" parent="1" source="4Z5__5ZLUC38kApSKfr--267" target="4Z5__5ZLUC38kApSKfr--267" edge="1">
          <mxGeometry width="50" height="50" relative="1" as="geometry">
            <mxPoint x="-400.02" y="1198" as="sourcePoint" />
            <mxPoint x="-322.12" y="1197" as="targetPoint" />
          </mxGeometry>
        </mxCell>
        <mxCell id="4Z5__5ZLUC38kApSKfr--269" value="CATEGORIA" style="text;html=1;strokeColor=none;fillColor=none;align=center;verticalAlign=middle;whiteSpace=wrap;rounded=0;fontSize=9;container=0;" parent="1" vertex="1">
          <mxGeometry x="366.68000000000006" y="916" width="68.37" height="20" as="geometry" />
        </mxCell>
        <mxCell id="4Z5__5ZLUC38kApSKfr--270" value="" style="endArrow=none;dashed=1;html=1;rounded=0;exitX=0;exitY=0;exitDx=0;exitDy=0;entryX=1;entryY=0;entryDx=0;entryDy=0;" parent="1" source="4Z5__5ZLUC38kApSKfr--269" target="4Z5__5ZLUC38kApSKfr--269" edge="1">
          <mxGeometry width="50" height="50" relative="1" as="geometry">
            <mxPoint x="-829.2" y="1015.5" as="sourcePoint" />
            <mxPoint x="-751.3" y="1014.5" as="targetPoint" />
          </mxGeometry>
        </mxCell>
        <mxCell id="4Z5__5ZLUC38kApSKfr--271" value="FACTURA" style="text;html=1;strokeColor=none;fillColor=none;align=center;verticalAlign=middle;whiteSpace=wrap;rounded=0;fontSize=9;container=0;" parent="1" vertex="1">
          <mxGeometry x="226.68000000000006" y="1186" width="78.37" height="20" as="geometry" />
        </mxCell>
        <mxCell id="4Z5__5ZLUC38kApSKfr--272" value="" style="endArrow=none;dashed=1;html=1;rounded=0;exitX=0;exitY=0;exitDx=0;exitDy=0;entryX=1;entryY=0;entryDx=0;entryDy=0;" parent="1" source="4Z5__5ZLUC38kApSKfr--271" target="4Z5__5ZLUC38kApSKfr--271" edge="1">
          <mxGeometry width="50" height="50" relative="1" as="geometry">
            <mxPoint x="-829.2" y="957" as="sourcePoint" />
            <mxPoint x="-751.3" y="956" as="targetPoint" />
          </mxGeometry>
        </mxCell>
      </root>
    </mxGraphModel>
  </diagram>
</mxfile>
